<svg xmlns="http://www.w3.org/2000/svg" width="900" height="250" viewBox="0 0 900 250">
  <rect width="900" height="250" fill="white"/>
  <g fill="#111" font-family="Arial, Helvetica, sans-serif">
    <!-- row 1 -->
    <g transform="translate(25,25)">
      <circle cx="28" cy="28" r="25" fill="none" stroke="#111" stroke-width="2"/>
      <text x="28" y="34" text-anchor="middle" font-size="16" font-weight="700">Py</text>
      <text x="68" y="34" font-size="17">Python</text>
    </g>
    <g transform="translate(175,25)">
      <circle cx="28" cy="28" r="25" fill="none" stroke="#111" stroke-width="2"/>
      <text x="28" y="34" text-anchor="middle" font-size="16" font-weight="700">J</text>
      <text x="68" y="34" font-size="17">Java</text>
    </g>
    <g transform="translate(325,25)">
      <circle cx="28" cy="28" r="25" fill="none" stroke="#111" stroke-width="2"/>
      <text x="28" y="34" text-anchor="middle" font-size="14" font-weight="700">JS</text>
      <text x="68" y="34" font-size="17">JavaScript</text>
    </g>
    <g transform="translate(500,25)">
      <circle cx="28" cy="28" r="25" fill="none" stroke="#111" stroke-width="2"/>
      <text x="28" y="34" text-anchor="middle" font-size="14" font-weight="700">Se</text>
      <text x="68" y="34" font-size="17">Selenium</text>
    </g>
    <g transform="translate(665,25)">
      <circle cx="28" cy="28" r="25" fill="none" stroke="#111" stroke-width="2"/>
      <text x="28" y="34" text-anchor="middle" font-size="13" font-weight="700">PW</text>
      <text x="68" y="34" font-size="17">Playwright</text>
    </g>

    <!-- row 2 -->
    <g transform="translate(25,105)">
      <circle cx="28" cy="28" r="25" fill="none" stroke="#111" stroke-width="2"/>
      <text x="28" y="34" text-anchor="middle" font-size="13" font-weight="700">PyT</text>
      <text x="68" y="34" font-size="17">Pytest</text>
    </g>
    <g transform="translate(175,105)">
      <circle cx="28" cy="28" r="25" fill="none" stroke="#111" stroke-width="2"/>
      <text x="28" y="34" text-anchor="middle" font-size="13" font-weight="700">API</text>
      <text x="68" y="34" font-size="17">Postman</text>
    </g>
    <g transform="translate(325,105)">
      <circle cx="28" cy="28" r="25" fill="none" stroke="#111" stroke-width="2"/>
      <text x="28" y="34" text-anchor="middle" font-size="12" font-weight="700">SW</text>
      <text x="68" y="34" font-size="17">Swagger</text>
    </g>
    <g transform="translate(500,105)">
      <circle cx="28" cy="28" r="25" fill="none" stroke="#111" stroke-width="2"/>
      <text x="28" y="34" text-anchor="middle" font-size="12" font-weight="700">PG</text>
      <text x="68" y="34" font-size="17">PostgreSQL</text>
    </g>
    <g transform="translate(665,105)">
      <circle cx="28" cy="28" r="25" fill="none" stroke="#111" stroke-width="2"/>
      <text x="28" y="34" text-anchor="middle" font-size="13" font-weight="700">Git</text>
      <text x="68" y="34" font-size="17">Git</text>
    </g>

    <!-- row 3 -->
    <g transform="translate(25,185)">
      <circle cx="28" cy="28" r="25" fill="none" stroke="#111" stroke-width="2"/>
      <text x="28" y="34" text-anchor="middle" font-size="12" font-weight="700">LIN</text>
      <text x="68" y="34" font-size="17">Linux</text>
    </g>
    <g transform="translate(175,185)">
      <circle cx="28" cy="28" r="25" fill="none" stroke="#111" stroke-width="2"/>
      <text x="28" y="34" text-anchor="middle" font-size="13" font-weight="700">SQL</text>
      <text x="68" y="34" font-size="17">SQL</text>
    </g>
    <g transform="translate(325,185)">
      <circle cx="28" cy="28" r="25" fill="none" stroke="#111" stroke-width="2"/>
      <text x="28" y="34" text-anchor="middle" font-size="12" font-weight="700">C#</text>
      <text x="68" y="34" font-size="17">C#</text>
    </g>
    <g transform="translate(500,185)">
      <circle cx="28" cy="28" r="25" fill="none" stroke="#111" stroke-width="2"/>
      <text x="28" y="34" text-anchor="middle" font-size="12" font-weight="700">API</text>
      <text x="68" y="34" font-size="17">REST API</text>
    </g>
    <g transform="translate(665,185)">
      <circle cx="28" cy="28" r="25" fill="none" stroke="#111" stroke-width="2"/>
      <text x="28" y="34" text-anchor="middle" font-size="12" font-weight="700">A</text>
      <text x="68" y="34" font-size="17">Allure</text>
    </g>
  </g>
</svg>